<?xml version="1.0" encoding="UTF-8"?>
<svg xmlns="http://www.w3.org/2000/svg" version="1.1" xmlns:xlink="http://www.w3.org/1999/xlink" viewBox="0 0 2000 1000">
  <defs>
    <style>
      .cls-1, .cls-2 {
        font-family: LogirentDemo, 'Logirent Demo';
      }

      .cls-3, .cls-4 {
        fill: #fff;
      }

      .cls-5 {
        fill: none;
      }

      .cls-4, .cls-6 {
        display: none;
      }

      .cls-7 {
        font-size: 114.41px;
      }

      .cls-8 {
        fill: #231f20;
      }

      .cls-9, .cls-10 {
        fill: #ffaf33;
      }

      .cls-9, .cls-2 {
        font-size: 200px;
      }

      .cls-11 {
        fill: #ffc840;
      }

      .cls-12 {
        fill: #9e9e9e;
      }

      .cls-13 {
        clip-path: url(#clippath);
      }

      .cls-14 {
        font-size: 183.06px;
      }

      .cls-15 {
        font-family: ReckonerBold, 'Reckoner Bold';
        font-size: 110.48px;
      }
    </style>
    <clipPath id="clippath">
      <path class="cls-5" d="M469.45,106.86v149.51c0,25.12-4.09,46.81-10.91,65.51-13.34,36.5-37.16,61.65-61.57,78.8-39.91,28-81.41,34.67-81.41,34.67,0,0-41.59-6.67-81.56-34.77-24.42-17.17-48.19-42.34-61.47-78.87-6.79-18.65-35.99-66.82-35.99-66.82l-.78-134.47,25.92,1.63v-15.2l5.84-3.31c22.59-12.74,43.49-52.94,68.36-59.48,24.9-6.54,53.76-16.88,79.68-16.88,51.87,0,102.87,50.89,148.04,76.36l5.84,3.31Z"/>
    </clipPath>
  </defs>
  <!-- Generator: Adobe Illustrator 28.7.1, SVG Export Plug-In . SVG Version: 1.2.0 Build 142)  -->
  <g>
    <g id="BG" class="cls-6">
      <g>
        <rect class="cls-3" x="-6.5" y="-4.5" width="2010" height="1009"/>
        <path d="M2003-4v1008H-6V-4h2009M2004-5H-7v1010h2011V-5h0Z"/>
      </g>
    </g>
    <g id="Layer_2">
      <g>
        <path class="cls-6" d="M325.38,580.48c-.96,0-1.92-.08-2.87-.23-2.46-.4-60.87-10.11-117.53-49.96-42.51-29.9-72.62-68.58-89.5-114.98-10.44-28.65-15.73-60.37-15.73-94.29V118.84c0-6.52,3.51-12.53,9.18-15.75l7.88-4.46c31.64-17.84,65.52-31.57,100.74-40.84,35.14-9.23,71.42-16.89,107.83-16.89,72.91,0,145.02,21.9,208.53,57.71l7.91,4.48c5.67,3.21,9.18,9.23,9.18,15.75v202.17c0,33.97-5.32,65.78-15.8,94.54-16.94,46.35-47.09,85-89.64,114.88-56.59,39.71-114.86,49.42-117.31,49.82-.95.15-1.91.23-2.87.23Z"/>
        <path class="cls-4" d="M516.56,134.27v185.74c0,31.21-5.08,58.15-13.55,81.39-16.57,45.35-46.16,76.59-76.5,97.89-49.58,34.79-101.13,43.08-101.13,43.08,0,0-51.67-8.29-101.32-43.2-30.34-21.34-59.86-52.61-76.37-97.99-8.44-23.17-13.49-50.05-13.49-81.17v-185.74l7.26-4.11c28.06-15.82,57.93-27.88,88.83-36.01,30.93-8.13,62.88-12.27,95.09-12.27,64.44,0,127.79,16.63,183.92,48.28l7.26,4.11Z"/>
        <path class="cls-4" d="M506.26,143.85v175.74c0,29.53-4.8,55.02-12.82,77-15.68,42.91-43.67,72.46-72.38,92.62-46.91,32.92-95.69,40.76-95.69,40.76,0,0-48.89-7.84-95.86-40.87-28.7-20.19-56.64-49.77-72.26-92.71-7.99-21.93-12.76-47.36-12.76-76.8v-175.74l6.87-3.89c26.55-14.97,54.81-26.37,84.05-34.07,29.26-7.69,59.5-11.61,89.97-11.61,60.97,0,120.91,15.74,174.02,45.68l6.87,3.89Z"/>
        <g class="cls-13">
          <g>
            <g>
              <path class="cls-3" d="M247.99,287.03l-4.09-63.14c8.97-2.09,26.83-10.9,27.6-11.28,3.08-.84,6.53-3.21,7.59-5.25,3.42-6.55,10.49-71.19,11.33-78.95l44.01,18.17c.57,7.62,4.84,61.51,12.06,64.08,2.85,1.01,6.07,2.04,9.58,3.08,4.2,1.24,12.76,3.48,14.65,3.98v70.39l-122.72-1.07Z"/>
              <path d="M290.84,129.12l43.11,17.8c.23,3.02,1.34,16.69,3.12,30.45,4.15,31.94,7.85,33.26,9.24,33.75,2.86,1.01,6.09,2.05,9.57,3.07l.06.02h.02c3.94,1.17,11.79,3.23,14.25,3.87v69.5l-121.75-1.06-4.04-62.25c8.93-2.21,25.69-10.43,27.21-11.18,3.31-.94,6.77-3.35,7.9-5.51,3.38-6.47,10.21-68.26,11.32-78.47M289.99,127.69s-7.79,72.63-11.35,79.44c-.97,1.86-4.23,4.17-7.37,5.03,0,0-19.04,9.43-27.9,11.34l4.15,64.03,123.69,1.08v-71.28s-10.25-2.66-14.96-4.06h-.04c-3.45-1.03-6.67-2.06-9.56-3.08-7.23-2.57-11.75-63.95-11.75-63.95l-44.91-18.54h0Z"/>
            </g>
            <g>
              <path d="M270,212.67s-31.81,9.23-48.75,14.07c-15.25,4.36-19.46,6.49-28.31,23.28-16.12,30.6-30.39,79.03-40.49,100.35-12.96,27.37-9.51,50.71-11.24,60.21-1.73,9.51,34.05,17.35,34.05,17.35l21.27-7.49v30.75h116.76v-178.12s-21.52-34.49-31.54-42.27c-10.02-7.78-11.75-18.15-11.75-18.15Z"/>
              <path d="M356.59,212.67s41.68,11.64,47.75,13.75c19.07,6.65,25.79,19.72,30.63,28.28,17.01,30.12,29.07,74.35,39.16,95.67,12.96,27.37,9.51,50.71,11.24,60.21,1.73,9.51-48.93,19.71-48.93,19.71l-6.39-66.38v87.29h-116.76v-178.12s21.52-34.49,31.54-42.27c10.02-7.78,11.75-18.15,11.75-18.15Z"/>
              <path class="cls-10" d="M313.3,260.84c-1.29-9.58-17.05-30.85-23.51-40.44-6.46-9.58-7.27-32.46-7.27-32.46,0,0-26.71,29.24-30.59,43.61-3.88,14.38,0,19.7,0,19.7,0,0,11.63-12.25,18.73-15.97,7.11-3.73,14.86-1.6,22.61,9.58,7.75,11.18,20.02,28.22,20.02,28.22v-12.25Z"/>
              <path class="cls-10" d="M313.3,260.84c1.29-9.58,15.49-29.69,21.95-39.28,6.46-9.58,4.99-29.94,4.99-29.94,0,0,30.55,25.56,34.43,39.93,3.88,14.38,0,19.7,0,19.7,0,0-11.63-12.25-18.73-15.97-7.11-3.73-14.86-1.6-22.61,9.58-7.75,11.18-20.02,28.22-20.02,28.22v-12.25Z"/>
              <path class="cls-12" d="M280.72,418.28l-74.01-156.19c-1.55-3.18-1.09-7.01,1.13-9.76l16.73-20.41c1.21-1.83,1.66-4.08,1.16-6.26l-2.1-9.2h.01s-29.18-29.74-29.18-29.74c-.74-.76-2.01-.08-1.8.96l6.6,32.64-14.74,12.75-20.21-7.54-7.65-31.68c-.17-.71-1.17-.83-1.51-.15l-14.74,30.05c-.22.55-.28,1.11-.09,1.65l5.81,18.22c.66,1.95,1.96,3.59,3.78,4.56l24.65,13.59c1.31.77,2.37,1.72,3.15,2.97.38.5.63,1.01.87,1.57l69.12,167.2c2.16,5.24,8.21,7.64,13.29,5.42l.42-.18,14.58-7.01c5.03-2.36,7.14-8.41,4.73-13.46Z"/>
              <g>
                <path class="cls-10" d="M310.83,337.7s-77.98-41.02-82.05-40.68c-4.07.34-27.8,11.53-33.56,16.95-5.76,5.42-6.44,9.49-5.09,13.56,1.36,4.07,3.05,4.35,3.05,4.35,0,0-3.9,4.47-3.65,10.23.25,5.76,2.29,8.26,2.29,8.26,0,0-3.55,1.86-2.3,9.18,1.25,7.31,7.01,14.89,7.01,14.89l114.29-36.74Z"/>
                <path class="cls-3" d="M414.49,427.93c-14.95-4.74-52.37-26.43-78.24-40.31-28.23-15.15-44.63-28.08-44.63-28.08,0,0,1.75-26.43,17.82-30.53,0,0,112.73,16.46,116.54,17.09,3.75.63,20.29,13.31,24.04,31.44,3.7,17.86-3.49,34.61-3.49,34.61l-32.03,15.78Z"/>
                <path d="M419.17,345.08c5.56.09,22.65.11,35.51,12.95,12.23,12.21,16.36,34.52,19.48,45.35,3.08,10.7-3.43,16.83-5.8,19.27-2.39,2.46-19.28,6.07-31.92,7.63-13.29,1.64-21.95-2.35-21.95-2.35,0,0,22.49-18.75,25.17-31.7,2.65-12.82-4.06-32.08-6.91-37.09-2.88-5.07-13.58-14.06-13.58-14.06Z"/>
                <path class="cls-3" d="M211.74,427.93c14.95-4.74,52.37-26.43,78.24-40.31,28.23-15.15,46.38-32.19,46.38-32.19,0,0-3.49-22.32-19.56-26.42,0,0-121.92,19.42-125.72,20.06-3.75.63-11.1,10.35-14.86,28.47-3.7,17.86,3.49,34.61,3.49,34.61l32.03,15.78Z"/>
                <path d="M191.07,349.07c-5.32-.03-6.98,2.15-20.02,15.07-12.23,12.21-15.87,28.42-18.98,39.25-3.08,10.7,3.43,16.83,5.8,19.27,2.39,2.46,19.28,6.07,31.92,7.63,13.29,1.64,21.95-2.35,21.95-2.35,0,0-22.49-18.75-25.17-31.7-2.65-12.82-1.82-32.17-.16-37.69,2.1-6.95,4.66-9.48,4.66-9.48Z"/>
                <path class="cls-10" d="M311.78,374.44s-5.88-39.05-16.17-42.56c0,0,90.57-24.77,98.34-25.64,7.53-.84,13.62,7.87,14.82,12.39,1.19,4.5,10.39,26.46,10.39,26.46,0,0-22.43-3.12-25.43-3.74-3.04-.63-31.95,2.9-36.84,3.22-4.99.32-45.12,29.87-45.12,29.87Z"/>
              </g>
            </g>
            <g>
              <path class="cls-10" d="M349.91,103.88s17.88,5.76,28.86,3.04c10.98-2.73,17.9-12.7,12.05-19.96-5.85-7.26-26.93-9.1-50.52,1.2l9.62,15.72Z"/>
              <g>
                <path d="M355.63,74.42c10.93,8.79,14.63,26.9,10.24,42.06-2.82,9.74-11.38,21.74-11.38,21.74,0,0-8.93-33.68-14.51-45.51-5.58-11.83-14.65-27.32-14.65-27.32l30.3,9.02Z"/>
                <path class="cls-3" d="M335.77,71.47c6.87,3.55,18.73,11.19,19.55,17.28.83,6.09,4.23,23.86,3.88,34.39-.35,10.54,2.35,30.95,1.16,43.28-1.19,12.34-1.55,25.01-17.7,32.98-14.92,7.37-32.38-1.8-44.72-9.58-14.36-9.05-19.85-17.26-19.93-43.55,0,0-10.77-47.94-8.43-55.29,5.68-17.85,42.37-11.59,52.73-13.5,10.36-1.91,13.46-6.03,13.46-6.03Z"/>
                <path d="M273.45,89.72c-3.3,5.84,8.37,12.54,9.45,17.74,2.16,10.4-.12,22.71-.12,22.71l-3.57,10.15s5.51,20.88,2.03,31.58c-1.9,5.82-37.76-40.42-30.29-73.57,4.29-19.05,17.82-21.48,17.82-21.48,2.21-19.53,10.69-27.75,48.7-28.12,38.01-.38,40.82,28.99,38.57,32.74-2.25,3.75-20.03,5.42-29.96,6.38-36.41,3.51-27.49-2.68-42.02-4.71-3.09-.43-7.31.74-10.61,6.58Z"/>
                <path class="cls-3" d="M281.22,143.71s-.24-9.9-5.03-14.35c-4.04-3.75-12.08-3.48-13.78,5.37-2.39,12.48,12.84,26.56,16.05,24.82l2.76-15.84Z"/>
                <path d="M360.66,160.37s-1.7,8.16-3.26,9.74c-1.56,1.58-4.23-5.42-8.33-8.95-8.43-7.25-20.49-5.95-28.59-.6-9.64,6.38-12.18,16.99-19.54,15.13-6.42-1.63-9.18-4.29-13.09-16.57-3.17-9.96-4.15-37.28-4.15-37.28l-6.76,2.73s-.15,29.39,1.96,41.19c1.75,9.81-1.58,15.48,13.57,28.1,10.53,8.77,27.84,11.8,37.68,11.44,30.36-1.11,31.09-21.01,31.01-34.31-.04-7.51-.49-10.64-.49-10.64ZM328.94,186.11c-9.08,1.72-12.98-1.23-12.59-3.43.47-2.71,2.75-11.42,9.13-16.29,5.54-4.23,12.22-4.86,17.82-2.81,5.29,1.93,10.93,15.02,6.11,19.21-6.37,5.53-5.09-2.05-11.86-1.8-5.01.18-6.48,4.72-8.61,5.12Z"/>
              </g>
              <path class="cls-10" d="M250.98,122.71s5.63-8.79,45.48-25.07c31.83-13,68.16-15.12,68.16-15.12,0,0-11.11-50.58-66.81-43.96-29.42,3.5-45.54,22.33-50.45,39.84-6.32,22.51,3.62,44.31,3.62,44.31Z"/>
              <path class="cls-11" d="M273.11,108.01s12.69-17.08,36.62-26.94c23.93-9.85,54.07-4.74,66.03-2.27,11.95,2.47,15.05,8.16,15.05,8.16,0,0-17.17-8.68-35.6.73-18.44,9.4-23.22,20-38.74,22.94-15.52,2.94-43.36-2.62-43.36-2.62Z"/>
            </g>
          </g>
        </g>
      </g>
    </g>
    <g id="Layer_1">
      <g>
        <path class="cls-3" d="M44.42,294.71l.3,491.07,137.23,151.92.3-128.55c-27.95-13.91-44.61-35.78-54.42-55.38-17.05-34.05-17.35-67.71-17.36-69.12v-270.18h160.12s-88.23-120.13-88.23-120.13l-137.95.38Z"/>
        <path class="cls-3" d="M504.69,684.63v-255.49H125.15s0,255.47,0,255.47c0,.29.35,32.01,16.02,63.01,19.56,38.7,53.43,59.18,100.7,60.94v-98.95h146.09v98.95c33.39-1.24,60.29-11.83,80.03-31.53,36.31-36.22,36.69-91.84,36.69-92.4ZM387.97,608.03l-146.08-.19-.02-110.67h146.1v110.86Z"/>
        <path class="cls-3" d="M519.38,684.62c0,2.49-.28,62.09-40.91,102.71-9.02,9.03-19.31,16.37-30.79,22.02l.3,128.34,137.23-151.93.3-491.06-138.43-.38-87.66,120.13h159.96v270.16Z"/>
        <path class="cls-8" d="M442.58,288.56l-.64-.47-92.21,126.37h9.7l87.66-120.13,138.43.38-.3,491.06-137.23,151.93-.3-128.34c-2.55,1.25-5.16,2.42-7.82,3.51l.34,145.14,151.84-168.1,1.01-1.12.31-497.98v-3.91s-150.77-.41-150.77-.41v2.08Z"/>
        <path d="M181.95,937.7l-137.23-151.92-.3-491.07,137.95-.38,88.23,120.13h9.72l-92.81-126.37-.15.11v-1.71s-150.77.41-150.77.41l.31,501.89,152.85,169.21.34-145.31c-2.7-1.11-5.31-2.3-7.82-3.55l-.3,128.55Z"/>
        <path class="cls-10" d="M478.47,787.33c40.63-40.63,40.91-100.22,40.91-102.71v-270.16h-159.96s-9.7,0-9.7,0h-69.42s-9.72,0-9.72,0H110.47s0,270.18,0,270.18c0,1.42.3,35.07,17.36,69.12,9.81,19.59,26.47,41.47,54.42,55.38,2.51,1.25,5.12,2.43,7.82,3.55,15.98,6.59,35.25,10.68,58.55,10.68.21,0,.42,0,.63,0l7.32-.02v-99.05h116.72v99.05l7.32.02c.22,0,.42,0,.64,0,21.88,0,41.46-3.53,58.62-10.52,2.67-1.09,5.28-2.25,7.82-3.51,11.48-5.65,21.76-12.99,30.79-22.02ZM387.97,808.56v-98.95h-146.09v98.95c-47.27-1.76-81.14-22.23-100.7-60.94-15.67-31-16.02-62.72-16.02-63.01v-255.47h379.54v255.49c0,.56-.38,56.18-36.69,92.4-19.74,19.7-46.64,30.29-80.03,31.53Z"/>
        <path class="cls-10" d="M241.9,607.84l146.08.19v-110.86h-146.1l.02,110.67ZM373.28,511.86v81.47l-116.71-.15v-81.31s116.71,0,116.71,0Z"/>
      </g>
      <text class="cls-15" transform="translate(137.52 698.12)"><tspan x="0" y="0">HANDYMAN</tspan></text>
      <text class="cls-1" transform="translate(597.73 471.21)"><tspan class="cls-9" x="0" y="0">M</tspan><tspan class="cls-7" x="178.6" y="0">azhar</tspan><tspan class="cls-14" x="564.85" y="0"> </tspan><tspan class="cls-9" x="619.76" y="0">A</tspan><tspan class="cls-7" x="761.36" y="0">nd</tspan><tspan class="cls-14" x="925.66" y="0"> </tspan><tspan class="cls-9" x="980.57" y="0">N</tspan><tspan class="cls-7" x="1128.57" y="0">asir</tspan></text>
      <text class="cls-2" transform="translate(656.47 664.72)"><tspan x="0" y="0">Associates</tspan></text>
    </g>
  </g>
</svg>